<mxfile host="app.diagrams.net" agent="Mozilla/5.0 (Windows NT 10.0; Win64; x64; rv:133.0) Gecko/20100101 Firefox/133.0" version="25.0.3">
  <diagram id="C5RBs43oDa-KdzZeNtuy" name="Page-1">
    <mxGraphModel dx="2871" dy="1043" grid="1" gridSize="10" guides="1" tooltips="1" connect="1" arrows="1" fold="1" page="1" pageScale="1" pageWidth="827" pageHeight="1169" math="0" shadow="0">
      <root>
        <mxCell id="WIyWlLk6GJQsqaUBKTNV-0" />
        <mxCell id="WIyWlLk6GJQsqaUBKTNV-1" parent="WIyWlLk6GJQsqaUBKTNV-0" />
        <mxCell id="drtFmP4h_T92IuwNgcdr-83" style="edgeStyle=orthogonalEdgeStyle;rounded=0;orthogonalLoop=1;jettySize=auto;html=1;entryX=1.019;entryY=1.098;entryDx=0;entryDy=0;entryPerimeter=0;" edge="1" parent="WIyWlLk6GJQsqaUBKTNV-1" source="drtFmP4h_T92IuwNgcdr-0" target="drtFmP4h_T92IuwNgcdr-70">
          <mxGeometry relative="1" as="geometry" />
        </mxCell>
        <mxCell id="drtFmP4h_T92IuwNgcdr-0" value="Administrativo" style="swimlane;fontStyle=1;align=center;verticalAlign=top;childLayout=stackLayout;horizontal=1;startSize=26;horizontalStack=0;resizeParent=1;resizeParentMax=0;resizeLast=0;collapsible=1;marginBottom=0;whiteSpace=wrap;html=1;" vertex="1" parent="WIyWlLk6GJQsqaUBKTNV-1">
          <mxGeometry x="-70" y="1916" width="410" height="346" as="geometry" />
        </mxCell>
        <mxCell id="drtFmP4h_T92IuwNgcdr-42" value="- idAdministrativo" style="text;strokeColor=none;fillColor=none;align=left;verticalAlign=top;spacingLeft=4;spacingRight=4;overflow=hidden;rotatable=0;points=[[0,0.5],[1,0.5]];portConstraint=eastwest;whiteSpace=wrap;html=1;" vertex="1" parent="drtFmP4h_T92IuwNgcdr-0">
          <mxGeometry y="26" width="410" height="26" as="geometry" />
        </mxCell>
        <mxCell id="drtFmP4h_T92IuwNgcdr-44" value="- nombre: string" style="text;strokeColor=none;fillColor=none;align=left;verticalAlign=top;spacingLeft=4;spacingRight=4;overflow=hidden;rotatable=0;points=[[0,0.5],[1,0.5]];portConstraint=eastwest;whiteSpace=wrap;html=1;" vertex="1" parent="drtFmP4h_T92IuwNgcdr-0">
          <mxGeometry y="52" width="410" height="26" as="geometry" />
        </mxCell>
        <mxCell id="drtFmP4h_T92IuwNgcdr-45" value="- correo: string" style="text;strokeColor=none;fillColor=none;align=left;verticalAlign=top;spacingLeft=4;spacingRight=4;overflow=hidden;rotatable=0;points=[[0,0.5],[1,0.5]];portConstraint=eastwest;whiteSpace=wrap;html=1;" vertex="1" parent="drtFmP4h_T92IuwNgcdr-0">
          <mxGeometry y="78" width="410" height="26" as="geometry" />
        </mxCell>
        <mxCell id="drtFmP4h_T92IuwNgcdr-46" value="- contraseña: string" style="text;strokeColor=none;fillColor=none;align=left;verticalAlign=top;spacingLeft=4;spacingRight=4;overflow=hidden;rotatable=0;points=[[0,0.5],[1,0.5]];portConstraint=eastwest;whiteSpace=wrap;html=1;" vertex="1" parent="drtFmP4h_T92IuwNgcdr-0">
          <mxGeometry y="104" width="410" height="26" as="geometry" />
        </mxCell>
        <mxCell id="drtFmP4h_T92IuwNgcdr-43" value="- rol: string" style="text;strokeColor=none;fillColor=none;align=left;verticalAlign=top;spacingLeft=4;spacingRight=4;overflow=hidden;rotatable=0;points=[[0,0.5],[1,0.5]];portConstraint=eastwest;whiteSpace=wrap;html=1;" vertex="1" parent="drtFmP4h_T92IuwNgcdr-0">
          <mxGeometry y="130" width="410" height="26" as="geometry" />
        </mxCell>
        <mxCell id="drtFmP4h_T92IuwNgcdr-1" value="- informesGenerados: int" style="text;strokeColor=none;fillColor=none;align=left;verticalAlign=top;spacingLeft=4;spacingRight=4;overflow=hidden;rotatable=0;points=[[0,0.5],[1,0.5]];portConstraint=eastwest;whiteSpace=wrap;html=1;" vertex="1" parent="drtFmP4h_T92IuwNgcdr-0">
          <mxGeometry y="156" width="410" height="26" as="geometry" />
        </mxCell>
        <mxCell id="drtFmP4h_T92IuwNgcdr-2" value="" style="line;strokeWidth=1;fillColor=none;align=left;verticalAlign=middle;spacingTop=-1;spacingLeft=3;spacingRight=3;rotatable=0;labelPosition=right;points=[];portConstraint=eastwest;strokeColor=inherit;" vertex="1" parent="drtFmP4h_T92IuwNgcdr-0">
          <mxGeometry y="182" width="410" height="8" as="geometry" />
        </mxCell>
        <mxCell id="drtFmP4h_T92IuwNgcdr-49" value="+ iniciarSesion(correo: string, contraseña: string): bool" style="text;strokeColor=none;fillColor=none;align=left;verticalAlign=top;spacingLeft=4;spacingRight=4;overflow=hidden;rotatable=0;points=[[0,0.5],[1,0.5]];portConstraint=eastwest;whiteSpace=wrap;html=1;" vertex="1" parent="drtFmP4h_T92IuwNgcdr-0">
          <mxGeometry y="190" width="410" height="26" as="geometry" />
        </mxCell>
        <mxCell id="drtFmP4h_T92IuwNgcdr-51" value="+ evaluarDocumentos(documentos: List&amp;lt;Documentos&amp;gt;): string" style="text;strokeColor=none;fillColor=none;align=left;verticalAlign=top;spacingLeft=4;spacingRight=4;overflow=hidden;rotatable=0;points=[[0,0.5],[1,0.5]];portConstraint=eastwest;whiteSpace=wrap;html=1;" vertex="1" parent="drtFmP4h_T92IuwNgcdr-0">
          <mxGeometry y="216" width="410" height="26" as="geometry" />
        </mxCell>
        <mxCell id="drtFmP4h_T92IuwNgcdr-50" value="+ validarDocumentos(documento: Documento): bool " style="text;strokeColor=none;fillColor=none;align=left;verticalAlign=top;spacingLeft=4;spacingRight=4;overflow=hidden;rotatable=0;points=[[0,0.5],[1,0.5]];portConstraint=eastwest;whiteSpace=wrap;html=1;" vertex="1" parent="drtFmP4h_T92IuwNgcdr-0">
          <mxGeometry y="242" width="410" height="26" as="geometry" />
        </mxCell>
        <mxCell id="drtFmP4h_T92IuwNgcdr-48" value="+ consultarAvance(sustentante: Sustentante): string" style="text;strokeColor=none;fillColor=none;align=left;verticalAlign=top;spacingLeft=4;spacingRight=4;overflow=hidden;rotatable=0;points=[[0,0.5],[1,0.5]];portConstraint=eastwest;whiteSpace=wrap;html=1;" vertex="1" parent="drtFmP4h_T92IuwNgcdr-0">
          <mxGeometry y="268" width="410" height="26" as="geometry" />
        </mxCell>
        <mxCell id="drtFmP4h_T92IuwNgcdr-47" value="+ autorizarAvance(sustentante: Sustentante): void" style="text;strokeColor=none;fillColor=none;align=left;verticalAlign=top;spacingLeft=4;spacingRight=4;overflow=hidden;rotatable=0;points=[[0,0.5],[1,0.5]];portConstraint=eastwest;whiteSpace=wrap;html=1;" vertex="1" parent="drtFmP4h_T92IuwNgcdr-0">
          <mxGeometry y="294" width="410" height="26" as="geometry" />
        </mxCell>
        <mxCell id="drtFmP4h_T92IuwNgcdr-3" value="+ generarInformes(): Informe" style="text;strokeColor=none;fillColor=none;align=left;verticalAlign=top;spacingLeft=4;spacingRight=4;overflow=hidden;rotatable=0;points=[[0,0.5],[1,0.5]];portConstraint=eastwest;whiteSpace=wrap;html=1;" vertex="1" parent="drtFmP4h_T92IuwNgcdr-0">
          <mxGeometry y="320" width="410" height="26" as="geometry" />
        </mxCell>
        <mxCell id="drtFmP4h_T92IuwNgcdr-77" style="edgeStyle=orthogonalEdgeStyle;rounded=0;orthogonalLoop=1;jettySize=auto;html=1;entryX=0.5;entryY=0;entryDx=0;entryDy=0;" edge="1" parent="WIyWlLk6GJQsqaUBKTNV-1" source="drtFmP4h_T92IuwNgcdr-4" target="drtFmP4h_T92IuwNgcdr-12">
          <mxGeometry relative="1" as="geometry" />
        </mxCell>
        <mxCell id="drtFmP4h_T92IuwNgcdr-4" value="Sustentante" style="swimlane;fontStyle=1;align=center;verticalAlign=top;childLayout=stackLayout;horizontal=1;startSize=26;horizontalStack=0;resizeParent=1;resizeParentMax=0;resizeLast=0;collapsible=1;marginBottom=0;whiteSpace=wrap;html=1;" vertex="1" parent="WIyWlLk6GJQsqaUBKTNV-1">
          <mxGeometry x="-770" y="1890" width="375" height="398" as="geometry" />
        </mxCell>
        <mxCell id="drtFmP4h_T92IuwNgcdr-28" value="&lt;div&gt;-idSistentante: int&lt;/div&gt;&lt;div&gt;&lt;br&gt;&lt;/div&gt;" style="text;strokeColor=none;fillColor=none;align=left;verticalAlign=top;spacingLeft=4;spacingRight=4;overflow=hidden;rotatable=0;points=[[0,0.5],[1,0.5]];portConstraint=eastwest;whiteSpace=wrap;html=1;" vertex="1" parent="drtFmP4h_T92IuwNgcdr-4">
          <mxGeometry y="26" width="375" height="26" as="geometry" />
        </mxCell>
        <mxCell id="drtFmP4h_T92IuwNgcdr-29" value="-nombre: string" style="text;strokeColor=none;fillColor=none;align=left;verticalAlign=top;spacingLeft=4;spacingRight=4;overflow=hidden;rotatable=0;points=[[0,0.5],[1,0.5]];portConstraint=eastwest;whiteSpace=wrap;html=1;" vertex="1" parent="drtFmP4h_T92IuwNgcdr-4">
          <mxGeometry y="52" width="375" height="26" as="geometry" />
        </mxCell>
        <mxCell id="drtFmP4h_T92IuwNgcdr-30" value="-correo: string" style="text;strokeColor=none;fillColor=none;align=left;verticalAlign=top;spacingLeft=4;spacingRight=4;overflow=hidden;rotatable=0;points=[[0,0.5],[1,0.5]];portConstraint=eastwest;whiteSpace=wrap;html=1;" vertex="1" parent="drtFmP4h_T92IuwNgcdr-4">
          <mxGeometry y="78" width="375" height="26" as="geometry" />
        </mxCell>
        <mxCell id="drtFmP4h_T92IuwNgcdr-31" value="-contraseña" style="text;strokeColor=none;fillColor=none;align=left;verticalAlign=top;spacingLeft=4;spacingRight=4;overflow=hidden;rotatable=0;points=[[0,0.5],[1,0.5]];portConstraint=eastwest;whiteSpace=wrap;html=1;" vertex="1" parent="drtFmP4h_T92IuwNgcdr-4">
          <mxGeometry y="104" width="375" height="26" as="geometry" />
        </mxCell>
        <mxCell id="drtFmP4h_T92IuwNgcdr-32" value="-estadoProceso: string" style="text;strokeColor=none;fillColor=none;align=left;verticalAlign=top;spacingLeft=4;spacingRight=4;overflow=hidden;rotatable=0;points=[[0,0.5],[1,0.5]];portConstraint=eastwest;whiteSpace=wrap;html=1;" vertex="1" parent="drtFmP4h_T92IuwNgcdr-4">
          <mxGeometry y="130" width="375" height="26" as="geometry" />
        </mxCell>
        <mxCell id="drtFmP4h_T92IuwNgcdr-33" value="-opcionTitulacion: string" style="text;strokeColor=none;fillColor=none;align=left;verticalAlign=top;spacingLeft=4;spacingRight=4;overflow=hidden;rotatable=0;points=[[0,0.5],[1,0.5]];portConstraint=eastwest;whiteSpace=wrap;html=1;" vertex="1" parent="drtFmP4h_T92IuwNgcdr-4">
          <mxGeometry y="156" width="375" height="26" as="geometry" />
        </mxCell>
        <mxCell id="drtFmP4h_T92IuwNgcdr-5" value="-rutaTitulacion: string" style="text;strokeColor=none;fillColor=none;align=left;verticalAlign=top;spacingLeft=4;spacingRight=4;overflow=hidden;rotatable=0;points=[[0,0.5],[1,0.5]];portConstraint=eastwest;whiteSpace=wrap;html=1;" vertex="1" parent="drtFmP4h_T92IuwNgcdr-4">
          <mxGeometry y="182" width="375" height="26" as="geometry" />
        </mxCell>
        <mxCell id="drtFmP4h_T92IuwNgcdr-6" value="" style="line;strokeWidth=1;fillColor=none;align=left;verticalAlign=middle;spacingTop=-1;spacingLeft=3;spacingRight=3;rotatable=0;labelPosition=right;points=[];portConstraint=eastwest;strokeColor=inherit;" vertex="1" parent="drtFmP4h_T92IuwNgcdr-4">
          <mxGeometry y="208" width="375" height="8" as="geometry" />
        </mxCell>
        <mxCell id="drtFmP4h_T92IuwNgcdr-36" value="+ inicioSesion(correo: string, contraseña: string): bool" style="text;strokeColor=none;fillColor=none;align=left;verticalAlign=top;spacingLeft=4;spacingRight=4;overflow=hidden;rotatable=0;points=[[0,0.5],[1,0.5]];portConstraint=eastwest;whiteSpace=wrap;html=1;" vertex="1" parent="drtFmP4h_T92IuwNgcdr-4">
          <mxGeometry y="216" width="375" height="26" as="geometry" />
        </mxCell>
        <mxCell id="drtFmP4h_T92IuwNgcdr-37" value="+ registrarse(nombre: string, correo: string, contraseña: string): bool" style="text;strokeColor=none;fillColor=none;align=left;verticalAlign=top;spacingLeft=4;spacingRight=4;overflow=hidden;rotatable=0;points=[[0,0.5],[1,0.5]];portConstraint=eastwest;whiteSpace=wrap;html=1;" vertex="1" parent="drtFmP4h_T92IuwNgcdr-4">
          <mxGeometry y="242" width="375" height="26" as="geometry" />
        </mxCell>
        <mxCell id="drtFmP4h_T92IuwNgcdr-38" value="+ consultarEstadoProceso(): string" style="text;strokeColor=none;fillColor=none;align=left;verticalAlign=top;spacingLeft=4;spacingRight=4;overflow=hidden;rotatable=0;points=[[0,0.5],[1,0.5]];portConstraint=eastwest;whiteSpace=wrap;html=1;" vertex="1" parent="drtFmP4h_T92IuwNgcdr-4">
          <mxGeometry y="268" width="375" height="26" as="geometry" />
        </mxCell>
        <mxCell id="drtFmP4h_T92IuwNgcdr-39" value="+ seleccionarOpcionTitulación(opcion: string): void" style="text;strokeColor=none;fillColor=none;align=left;verticalAlign=top;spacingLeft=4;spacingRight=4;overflow=hidden;rotatable=0;points=[[0,0.5],[1,0.5]];portConstraint=eastwest;whiteSpace=wrap;html=1;" vertex="1" parent="drtFmP4h_T92IuwNgcdr-4">
          <mxGeometry y="294" width="375" height="26" as="geometry" />
        </mxCell>
        <mxCell id="drtFmP4h_T92IuwNgcdr-40" value="+ consultarRutaTitulacion(): string" style="text;strokeColor=none;fillColor=none;align=left;verticalAlign=top;spacingLeft=4;spacingRight=4;overflow=hidden;rotatable=0;points=[[0,0.5],[1,0.5]];portConstraint=eastwest;whiteSpace=wrap;html=1;" vertex="1" parent="drtFmP4h_T92IuwNgcdr-4">
          <mxGeometry y="320" width="375" height="26" as="geometry" />
        </mxCell>
        <mxCell id="drtFmP4h_T92IuwNgcdr-41" value="+ subirDocumento(documento: Documento): void" style="text;strokeColor=none;fillColor=none;align=left;verticalAlign=top;spacingLeft=4;spacingRight=4;overflow=hidden;rotatable=0;points=[[0,0.5],[1,0.5]];portConstraint=eastwest;whiteSpace=wrap;html=1;" vertex="1" parent="drtFmP4h_T92IuwNgcdr-4">
          <mxGeometry y="346" width="375" height="26" as="geometry" />
        </mxCell>
        <mxCell id="drtFmP4h_T92IuwNgcdr-35" value="+ recibirNotificacion(notificacion: Notificacion): void" style="text;strokeColor=none;fillColor=none;align=left;verticalAlign=top;spacingLeft=4;spacingRight=4;overflow=hidden;rotatable=0;points=[[0,0.5],[1,0.5]];portConstraint=eastwest;whiteSpace=wrap;html=1;" vertex="1" parent="drtFmP4h_T92IuwNgcdr-4">
          <mxGeometry y="372" width="375" height="26" as="geometry" />
        </mxCell>
        <mxCell id="drtFmP4h_T92IuwNgcdr-8" value="SistemaDeSeguridad" style="swimlane;fontStyle=1;align=center;verticalAlign=top;childLayout=stackLayout;horizontal=1;startSize=26;horizontalStack=0;resizeParent=1;resizeParentMax=0;resizeLast=0;collapsible=1;marginBottom=0;whiteSpace=wrap;html=1;" vertex="1" parent="WIyWlLk6GJQsqaUBKTNV-1">
          <mxGeometry x="580" y="2012" width="370" height="112" as="geometry" />
        </mxCell>
        <mxCell id="drtFmP4h_T92IuwNgcdr-9" value="- idSistema: int" style="text;strokeColor=none;fillColor=none;align=left;verticalAlign=top;spacingLeft=4;spacingRight=4;overflow=hidden;rotatable=0;points=[[0,0.5],[1,0.5]];portConstraint=eastwest;whiteSpace=wrap;html=1;" vertex="1" parent="drtFmP4h_T92IuwNgcdr-8">
          <mxGeometry y="26" width="370" height="26" as="geometry" />
        </mxCell>
        <mxCell id="drtFmP4h_T92IuwNgcdr-10" value="" style="line;strokeWidth=1;fillColor=none;align=left;verticalAlign=middle;spacingTop=-1;spacingLeft=3;spacingRight=3;rotatable=0;labelPosition=right;points=[];portConstraint=eastwest;strokeColor=inherit;" vertex="1" parent="drtFmP4h_T92IuwNgcdr-8">
          <mxGeometry y="52" width="370" height="8" as="geometry" />
        </mxCell>
        <mxCell id="drtFmP4h_T92IuwNgcdr-55" value="+ autenticaUsuario(correo: string, contraseña: string): bool" style="text;strokeColor=none;fillColor=none;align=left;verticalAlign=top;spacingLeft=4;spacingRight=4;overflow=hidden;rotatable=0;points=[[0,0.5],[1,0.5]];portConstraint=eastwest;whiteSpace=wrap;html=1;" vertex="1" parent="drtFmP4h_T92IuwNgcdr-8">
          <mxGeometry y="60" width="370" height="26" as="geometry" />
        </mxCell>
        <mxCell id="drtFmP4h_T92IuwNgcdr-11" value="+ autorizarAcceso(usuario: string, rol: string): bool" style="text;strokeColor=none;fillColor=none;align=left;verticalAlign=top;spacingLeft=4;spacingRight=4;overflow=hidden;rotatable=0;points=[[0,0.5],[1,0.5]];portConstraint=eastwest;whiteSpace=wrap;html=1;" vertex="1" parent="drtFmP4h_T92IuwNgcdr-8">
          <mxGeometry y="86" width="370" height="26" as="geometry" />
        </mxCell>
        <mxCell id="drtFmP4h_T92IuwNgcdr-12" value="Documento" style="swimlane;fontStyle=1;align=center;verticalAlign=top;childLayout=stackLayout;horizontal=1;startSize=26;horizontalStack=0;resizeParent=1;resizeParentMax=0;resizeLast=0;collapsible=1;marginBottom=0;whiteSpace=wrap;html=1;" vertex="1" parent="WIyWlLk6GJQsqaUBKTNV-1">
          <mxGeometry x="-712.5" y="2432" width="260" height="268" as="geometry" />
        </mxCell>
        <mxCell id="drtFmP4h_T92IuwNgcdr-70" value="- idDocumento: int" style="text;strokeColor=none;fillColor=none;align=left;verticalAlign=top;spacingLeft=4;spacingRight=4;overflow=hidden;rotatable=0;points=[[0,0.5],[1,0.5]];portConstraint=eastwest;whiteSpace=wrap;html=1;" vertex="1" parent="drtFmP4h_T92IuwNgcdr-12">
          <mxGeometry y="26" width="260" height="26" as="geometry" />
        </mxCell>
        <mxCell id="drtFmP4h_T92IuwNgcdr-69" value="- nombre: string" style="text;strokeColor=none;fillColor=none;align=left;verticalAlign=top;spacingLeft=4;spacingRight=4;overflow=hidden;rotatable=0;points=[[0,0.5],[1,0.5]];portConstraint=eastwest;whiteSpace=wrap;html=1;" vertex="1" parent="drtFmP4h_T92IuwNgcdr-12">
          <mxGeometry y="52" width="260" height="26" as="geometry" />
        </mxCell>
        <mxCell id="drtFmP4h_T92IuwNgcdr-68" value="- tipo: string" style="text;strokeColor=none;fillColor=none;align=left;verticalAlign=top;spacingLeft=4;spacingRight=4;overflow=hidden;rotatable=0;points=[[0,0.5],[1,0.5]];portConstraint=eastwest;whiteSpace=wrap;html=1;" vertex="1" parent="drtFmP4h_T92IuwNgcdr-12">
          <mxGeometry y="78" width="260" height="26" as="geometry" />
        </mxCell>
        <mxCell id="drtFmP4h_T92IuwNgcdr-67" value="- estado: string" style="text;strokeColor=none;fillColor=none;align=left;verticalAlign=top;spacingLeft=4;spacingRight=4;overflow=hidden;rotatable=0;points=[[0,0.5],[1,0.5]];portConstraint=eastwest;whiteSpace=wrap;html=1;" vertex="1" parent="drtFmP4h_T92IuwNgcdr-12">
          <mxGeometry y="104" width="260" height="26" as="geometry" />
        </mxCell>
        <mxCell id="drtFmP4h_T92IuwNgcdr-71" value="- fechaSubida: date" style="text;strokeColor=none;fillColor=none;align=left;verticalAlign=top;spacingLeft=4;spacingRight=4;overflow=hidden;rotatable=0;points=[[0,0.5],[1,0.5]];portConstraint=eastwest;whiteSpace=wrap;html=1;" vertex="1" parent="drtFmP4h_T92IuwNgcdr-12">
          <mxGeometry y="130" width="260" height="26" as="geometry" />
        </mxCell>
        <mxCell id="drtFmP4h_T92IuwNgcdr-13" value="- propietario: Sustentante" style="text;strokeColor=none;fillColor=none;align=left;verticalAlign=top;spacingLeft=4;spacingRight=4;overflow=hidden;rotatable=0;points=[[0,0.5],[1,0.5]];portConstraint=eastwest;whiteSpace=wrap;html=1;" vertex="1" parent="drtFmP4h_T92IuwNgcdr-12">
          <mxGeometry y="156" width="260" height="26" as="geometry" />
        </mxCell>
        <mxCell id="drtFmP4h_T92IuwNgcdr-14" value="" style="line;strokeWidth=1;fillColor=none;align=left;verticalAlign=middle;spacingTop=-1;spacingLeft=3;spacingRight=3;rotatable=0;labelPosition=right;points=[];portConstraint=eastwest;strokeColor=inherit;" vertex="1" parent="drtFmP4h_T92IuwNgcdr-12">
          <mxGeometry y="182" width="260" height="8" as="geometry" />
        </mxCell>
        <mxCell id="drtFmP4h_T92IuwNgcdr-72" value="+ almacenar(): void" style="text;strokeColor=none;fillColor=none;align=left;verticalAlign=top;spacingLeft=4;spacingRight=4;overflow=hidden;rotatable=0;points=[[0,0.5],[1,0.5]];portConstraint=eastwest;whiteSpace=wrap;html=1;" vertex="1" parent="drtFmP4h_T92IuwNgcdr-12">
          <mxGeometry y="190" width="260" height="26" as="geometry" />
        </mxCell>
        <mxCell id="drtFmP4h_T92IuwNgcdr-74" value="+ recuperar(idDocumento: int): Documento" style="text;strokeColor=none;fillColor=none;align=left;verticalAlign=top;spacingLeft=4;spacingRight=4;overflow=hidden;rotatable=0;points=[[0,0.5],[1,0.5]];portConstraint=eastwest;whiteSpace=wrap;html=1;" vertex="1" parent="drtFmP4h_T92IuwNgcdr-12">
          <mxGeometry y="216" width="260" height="26" as="geometry" />
        </mxCell>
        <mxCell id="drtFmP4h_T92IuwNgcdr-15" value="+ actualizarEstado(estado: string): void" style="text;strokeColor=none;fillColor=none;align=left;verticalAlign=top;spacingLeft=4;spacingRight=4;overflow=hidden;rotatable=0;points=[[0,0.5],[1,0.5]];portConstraint=eastwest;whiteSpace=wrap;html=1;" vertex="1" parent="drtFmP4h_T92IuwNgcdr-12">
          <mxGeometry y="242" width="260" height="26" as="geometry" />
        </mxCell>
        <mxCell id="drtFmP4h_T92IuwNgcdr-16" value="Notificación" style="swimlane;fontStyle=1;align=center;verticalAlign=top;childLayout=stackLayout;horizontal=1;startSize=26;horizontalStack=0;resizeParent=1;resizeParentMax=0;resizeLast=0;collapsible=1;marginBottom=0;whiteSpace=wrap;html=1;" vertex="1" parent="WIyWlLk6GJQsqaUBKTNV-1">
          <mxGeometry x="200" y="2550" width="350" height="190" as="geometry" />
        </mxCell>
        <mxCell id="drtFmP4h_T92IuwNgcdr-58" value="- idNotificacion: int" style="text;strokeColor=none;fillColor=none;align=left;verticalAlign=top;spacingLeft=4;spacingRight=4;overflow=hidden;rotatable=0;points=[[0,0.5],[1,0.5]];portConstraint=eastwest;whiteSpace=wrap;html=1;" vertex="1" parent="drtFmP4h_T92IuwNgcdr-16">
          <mxGeometry y="26" width="350" height="26" as="geometry" />
        </mxCell>
        <mxCell id="drtFmP4h_T92IuwNgcdr-57" value="- mensaje: string" style="text;strokeColor=none;fillColor=none;align=left;verticalAlign=top;spacingLeft=4;spacingRight=4;overflow=hidden;rotatable=0;points=[[0,0.5],[1,0.5]];portConstraint=eastwest;whiteSpace=wrap;html=1;" vertex="1" parent="drtFmP4h_T92IuwNgcdr-16">
          <mxGeometry y="52" width="350" height="26" as="geometry" />
        </mxCell>
        <mxCell id="drtFmP4h_T92IuwNgcdr-56" value="- fecha: date" style="text;strokeColor=none;fillColor=none;align=left;verticalAlign=top;spacingLeft=4;spacingRight=4;overflow=hidden;rotatable=0;points=[[0,0.5],[1,0.5]];portConstraint=eastwest;whiteSpace=wrap;html=1;" vertex="1" parent="drtFmP4h_T92IuwNgcdr-16">
          <mxGeometry y="78" width="350" height="26" as="geometry" />
        </mxCell>
        <mxCell id="drtFmP4h_T92IuwNgcdr-17" value="- destinatario: Sustentante" style="text;strokeColor=none;fillColor=none;align=left;verticalAlign=top;spacingLeft=4;spacingRight=4;overflow=hidden;rotatable=0;points=[[0,0.5],[1,0.5]];portConstraint=eastwest;whiteSpace=wrap;html=1;" vertex="1" parent="drtFmP4h_T92IuwNgcdr-16">
          <mxGeometry y="104" width="350" height="26" as="geometry" />
        </mxCell>
        <mxCell id="drtFmP4h_T92IuwNgcdr-18" value="" style="line;strokeWidth=1;fillColor=none;align=left;verticalAlign=middle;spacingTop=-1;spacingLeft=3;spacingRight=3;rotatable=0;labelPosition=right;points=[];portConstraint=eastwest;strokeColor=inherit;" vertex="1" parent="drtFmP4h_T92IuwNgcdr-16">
          <mxGeometry y="130" width="350" height="8" as="geometry" />
        </mxCell>
        <mxCell id="drtFmP4h_T92IuwNgcdr-59" value="+ enviarNotificacion(destinatario; Sustentante): void" style="text;strokeColor=none;fillColor=none;align=left;verticalAlign=top;spacingLeft=4;spacingRight=4;overflow=hidden;rotatable=0;points=[[0,0.5],[1,0.5]];portConstraint=eastwest;whiteSpace=wrap;html=1;" vertex="1" parent="drtFmP4h_T92IuwNgcdr-16">
          <mxGeometry y="138" width="350" height="26" as="geometry" />
        </mxCell>
        <mxCell id="drtFmP4h_T92IuwNgcdr-19" value="+ enviarAlertaRetroalimentacion(destinatario: Sustentante): void" style="text;strokeColor=none;fillColor=none;align=left;verticalAlign=top;spacingLeft=4;spacingRight=4;overflow=hidden;rotatable=0;points=[[0,0.5],[1,0.5]];portConstraint=eastwest;whiteSpace=wrap;html=1;" vertex="1" parent="drtFmP4h_T92IuwNgcdr-16">
          <mxGeometry y="164" width="350" height="26" as="geometry" />
        </mxCell>
        <mxCell id="drtFmP4h_T92IuwNgcdr-20" value="SistemaDeNotificacion" style="swimlane;fontStyle=1;align=center;verticalAlign=top;childLayout=stackLayout;horizontal=1;startSize=26;horizontalStack=0;resizeParent=1;resizeParentMax=0;resizeLast=0;collapsible=1;marginBottom=0;whiteSpace=wrap;html=1;" vertex="1" parent="WIyWlLk6GJQsqaUBKTNV-1">
          <mxGeometry x="150" y="2900" width="460" height="112" as="geometry" />
        </mxCell>
        <mxCell id="drtFmP4h_T92IuwNgcdr-21" value="- idSistemaNotificacion: int" style="text;strokeColor=none;fillColor=none;align=left;verticalAlign=top;spacingLeft=4;spacingRight=4;overflow=hidden;rotatable=0;points=[[0,0.5],[1,0.5]];portConstraint=eastwest;whiteSpace=wrap;html=1;" vertex="1" parent="drtFmP4h_T92IuwNgcdr-20">
          <mxGeometry y="26" width="460" height="26" as="geometry" />
        </mxCell>
        <mxCell id="drtFmP4h_T92IuwNgcdr-22" value="" style="line;strokeWidth=1;fillColor=none;align=left;verticalAlign=middle;spacingTop=-1;spacingLeft=3;spacingRight=3;rotatable=0;labelPosition=right;points=[];portConstraint=eastwest;strokeColor=inherit;" vertex="1" parent="drtFmP4h_T92IuwNgcdr-20">
          <mxGeometry y="52" width="460" height="8" as="geometry" />
        </mxCell>
        <mxCell id="drtFmP4h_T92IuwNgcdr-64" value="+ enviarNotificaciones(sustentante: Sustentante, mensaje: string): void" style="text;strokeColor=none;fillColor=none;align=left;verticalAlign=top;spacingLeft=4;spacingRight=4;overflow=hidden;rotatable=0;points=[[0,0.5],[1,0.5]];portConstraint=eastwest;whiteSpace=wrap;html=1;" vertex="1" parent="drtFmP4h_T92IuwNgcdr-20">
          <mxGeometry y="60" width="460" height="26" as="geometry" />
        </mxCell>
        <mxCell id="drtFmP4h_T92IuwNgcdr-23" value="+ enviarAlertasRetroalimentacion( sustentante: Sustentante, mensaje: string): void" style="text;strokeColor=none;fillColor=none;align=left;verticalAlign=top;spacingLeft=4;spacingRight=4;overflow=hidden;rotatable=0;points=[[0,0.5],[1,0.5]];portConstraint=eastwest;whiteSpace=wrap;html=1;" vertex="1" parent="drtFmP4h_T92IuwNgcdr-20">
          <mxGeometry y="86" width="460" height="26" as="geometry" />
        </mxCell>
        <mxCell id="drtFmP4h_T92IuwNgcdr-24" value="SistemaDeAlmacenamiento" style="swimlane;fontStyle=1;align=center;verticalAlign=top;childLayout=stackLayout;horizontal=1;startSize=26;horizontalStack=0;resizeParent=1;resizeParentMax=0;resizeLast=0;collapsible=1;marginBottom=0;whiteSpace=wrap;html=1;" vertex="1" parent="WIyWlLk6GJQsqaUBKTNV-1">
          <mxGeometry x="-350" y="2980" width="370" height="138" as="geometry" />
        </mxCell>
        <mxCell id="drtFmP4h_T92IuwNgcdr-65" value="- idSistemaAlmacenamiento" style="text;strokeColor=none;fillColor=none;align=left;verticalAlign=top;spacingLeft=4;spacingRight=4;overflow=hidden;rotatable=0;points=[[0,0.5],[1,0.5]];portConstraint=eastwest;whiteSpace=wrap;html=1;" vertex="1" parent="drtFmP4h_T92IuwNgcdr-24">
          <mxGeometry y="26" width="370" height="26" as="geometry" />
        </mxCell>
        <mxCell id="drtFmP4h_T92IuwNgcdr-25" value="- espacioDisponible: int" style="text;strokeColor=none;fillColor=none;align=left;verticalAlign=top;spacingLeft=4;spacingRight=4;overflow=hidden;rotatable=0;points=[[0,0.5],[1,0.5]];portConstraint=eastwest;whiteSpace=wrap;html=1;" vertex="1" parent="drtFmP4h_T92IuwNgcdr-24">
          <mxGeometry y="52" width="370" height="26" as="geometry" />
        </mxCell>
        <mxCell id="drtFmP4h_T92IuwNgcdr-26" value="- " style="line;strokeWidth=1;fillColor=none;align=left;verticalAlign=middle;spacingTop=-1;spacingLeft=3;spacingRight=3;rotatable=0;labelPosition=right;points=[];portConstraint=eastwest;strokeColor=inherit;" vertex="1" parent="drtFmP4h_T92IuwNgcdr-24">
          <mxGeometry y="78" width="370" height="8" as="geometry" />
        </mxCell>
        <mxCell id="drtFmP4h_T92IuwNgcdr-66" value="+ almacenamientoDocumentos(documento: Documento): void" style="text;strokeColor=none;fillColor=none;align=left;verticalAlign=top;spacingLeft=4;spacingRight=4;overflow=hidden;rotatable=0;points=[[0,0.5],[1,0.5]];portConstraint=eastwest;whiteSpace=wrap;html=1;" vertex="1" parent="drtFmP4h_T92IuwNgcdr-24">
          <mxGeometry y="86" width="370" height="26" as="geometry" />
        </mxCell>
        <mxCell id="drtFmP4h_T92IuwNgcdr-27" value="+ recuperarDocumento(idDocumento: int): Documento" style="text;strokeColor=none;fillColor=none;align=left;verticalAlign=top;spacingLeft=4;spacingRight=4;overflow=hidden;rotatable=0;points=[[0,0.5],[1,0.5]];portConstraint=eastwest;whiteSpace=wrap;html=1;" vertex="1" parent="drtFmP4h_T92IuwNgcdr-24">
          <mxGeometry y="112" width="370" height="26" as="geometry" />
        </mxCell>
        <mxCell id="drtFmP4h_T92IuwNgcdr-78" value="1" style="endArrow=open;html=1;endSize=12;startArrow=diamondThin;startSize=14;startFill=0;edgeStyle=orthogonalEdgeStyle;align=left;verticalAlign=bottom;rounded=0;exitX=0;exitY=0.5;exitDx=0;exitDy=0;entryX=0.455;entryY=1.017;entryDx=0;entryDy=0;entryPerimeter=0;" edge="1" parent="WIyWlLk6GJQsqaUBKTNV-1" source="drtFmP4h_T92IuwNgcdr-25" target="drtFmP4h_T92IuwNgcdr-15">
          <mxGeometry x="-1" y="3" relative="1" as="geometry">
            <mxPoint x="-290" y="2690" as="sourcePoint" />
            <mxPoint x="-130" y="2690" as="targetPoint" />
          </mxGeometry>
        </mxCell>
        <mxCell id="drtFmP4h_T92IuwNgcdr-80" value="" style="endArrow=open;html=1;endSize=12;startArrow=diamondThin;startSize=14;startFill=1;edgeStyle=orthogonalEdgeStyle;align=left;verticalAlign=bottom;rounded=0;exitX=0.5;exitY=0;exitDx=0;exitDy=0;" edge="1" parent="WIyWlLk6GJQsqaUBKTNV-1" source="drtFmP4h_T92IuwNgcdr-20">
          <mxGeometry x="-0.8671" relative="1" as="geometry">
            <mxPoint x="260" y="2790" as="sourcePoint" />
            <mxPoint x="380" y="2750" as="targetPoint" />
            <mxPoint as="offset" />
          </mxGeometry>
        </mxCell>
        <mxCell id="drtFmP4h_T92IuwNgcdr-81" style="edgeStyle=orthogonalEdgeStyle;rounded=0;orthogonalLoop=1;jettySize=auto;html=1;entryX=0;entryY=0.5;entryDx=0;entryDy=0;" edge="1" parent="WIyWlLk6GJQsqaUBKTNV-1" source="drtFmP4h_T92IuwNgcdr-33" target="drtFmP4h_T92IuwNgcdr-1">
          <mxGeometry relative="1" as="geometry" />
        </mxCell>
        <mxCell id="drtFmP4h_T92IuwNgcdr-82" style="edgeStyle=orthogonalEdgeStyle;rounded=0;orthogonalLoop=1;jettySize=auto;html=1;entryX=0.049;entryY=0.919;entryDx=0;entryDy=0;entryPerimeter=0;exitX=0.86;exitY=1.03;exitDx=0;exitDy=0;exitPerimeter=0;" edge="1" parent="WIyWlLk6GJQsqaUBKTNV-1" source="drtFmP4h_T92IuwNgcdr-35">
          <mxGeometry relative="1" as="geometry">
            <mxPoint x="-413" y="2320" as="sourcePoint" />
            <mxPoint x="199.1500000000001" y="2644.8940000000002" as="targetPoint" />
            <Array as="points">
              <mxPoint x="-447" y="2320" />
              <mxPoint x="-290" y="2320" />
              <mxPoint x="-290" y="2645" />
            </Array>
          </mxGeometry>
        </mxCell>
        <mxCell id="drtFmP4h_T92IuwNgcdr-85" value="" style="endArrow=open;endSize=12;dashed=1;html=1;rounded=0;exitX=1;exitY=0.5;exitDx=0;exitDy=0;entryX=0;entryY=0.5;entryDx=0;entryDy=0;" edge="1" parent="WIyWlLk6GJQsqaUBKTNV-1" source="drtFmP4h_T92IuwNgcdr-1" target="drtFmP4h_T92IuwNgcdr-55">
          <mxGeometry width="160" relative="1" as="geometry">
            <mxPoint x="360" y="2074.89" as="sourcePoint" />
            <mxPoint x="520" y="2074.89" as="targetPoint" />
          </mxGeometry>
        </mxCell>
        <mxCell id="drtFmP4h_T92IuwNgcdr-86" value="Use" style="endArrow=open;endSize=12;dashed=1;html=1;rounded=0;exitX=1;exitY=0.5;exitDx=0;exitDy=0;entryX=0.376;entryY=1.184;entryDx=0;entryDy=0;entryPerimeter=0;" edge="1" parent="WIyWlLk6GJQsqaUBKTNV-1" source="drtFmP4h_T92IuwNgcdr-39" target="drtFmP4h_T92IuwNgcdr-11">
          <mxGeometry width="160" relative="1" as="geometry">
            <mxPoint x="10" y="2210" as="sourcePoint" />
            <mxPoint x="170" y="2210" as="targetPoint" />
            <Array as="points">
              <mxPoint x="-180" y="2200" />
              <mxPoint x="-180" y="2360" />
              <mxPoint x="719" y="2360" />
            </Array>
          </mxGeometry>
        </mxCell>
      </root>
    </mxGraphModel>
  </diagram>
</mxfile>
